<svg id="SvgjsSvg1006" width="266" height="310" xmlns="http://www.w3.org/2000/svg" version="1.1" xmlns:xlink="http://www.w3.org/1999/xlink" xmlns:svgjs="http://svgjs.com/svgjs"><defs id="SvgjsDefs1007"><marker id="SvgjsMarker1034" markerWidth="14" markerHeight="10" refX="10" refY="5" viewBox="0 0 14 10" orient="auto" markerUnits="userSpaceOnUse" stroke-dasharray="0,0"><path id="SvgjsPath1035" d="M0,0 L14,5 L0,10 L0,0" fill="#323232" stroke="#323232" stroke-width="1"></path></marker><marker id="SvgjsMarker1038" markerWidth="14" markerHeight="10" refX="10" refY="5" viewBox="0 0 14 10" orient="auto" markerUnits="userSpaceOnUse" stroke-dasharray="0,0"><path id="SvgjsPath1039" d="M0,0 L14,5 L0,10 L0,0" fill="#323232" stroke="#323232" stroke-width="1"></path></marker><marker id="SvgjsMarker1042" markerWidth="14" markerHeight="10" refX="10" refY="5" viewBox="0 0 14 10" orient="auto" markerUnits="userSpaceOnUse" stroke-dasharray="0,0"><path id="SvgjsPath1043" d="M0,0 L14,5 L0,10 L0,0" fill="#323232" stroke="#323232" stroke-width="1"></path></marker></defs><g id="SvgjsG1008" transform="translate(69,177)"><path id="SvgjsPath1009" d="M 0 4Q 0 0 4 0L 149 0Q 153 0 153 4L 153 40Q 153 44 149 44L 4 44Q 0 44 0 40Z" stroke="rgba(50,50,50,1)" stroke-width="2" fill-opacity="1" fill="#ffffff"></path><g id="SvgjsG1010"><text id="SvgjsText1011" font-family="微软雅黑" text-anchor="middle" font-size="13px" width="133px" fill="#323232" font-weight="400" align="middle" lineHeight="125%" anchor="middle" family="微软雅黑" size="13px" weight="400" font-style="" opacity="1" y="10.875" transform="rotate(0)"><tspan id="SvgjsTspan1012" dy="16" x="76.5"><tspan id="SvgjsTspan1013" style="text-decoration:;">上层元素</tspan></tspan></text></g></g><g id="SvgjsG1014" transform="translate(60,106.5)"><path id="SvgjsPath1015" d="M 0 4Q 0 0 4 0L 167 0Q 171 0 171 4L 171 51Q 171 55 167 55L 4 55Q 0 55 0 51Z" stroke="rgba(50,50,50,1)" stroke-width="2" fill-opacity="1" fill="#ffffff"></path><g id="SvgjsG1016"><text id="SvgjsText1017" font-family="微软雅黑" text-anchor="middle" font-size="13px" width="151px" fill="#323232" font-weight="400" align="middle" lineHeight="125%" anchor="middle" family="微软雅黑" size="13px" weight="400" font-style="" opacity="1" y="16.375" transform="rotate(0)"><tspan id="SvgjsTspan1018" dy="16" x="85.5"><tspan id="SvgjsTspan1019" style="text-decoration:;">element</tspan></tspan></text></g></g><g id="SvgjsG1020" transform="translate(55,25)"><path id="SvgjsPath1021" d="M 0 4Q 0 0 4 0L 182 0Q 186 0 186 4L 186 62Q 186 66 182 66L 4 66Q 0 66 0 62Z" stroke="rgba(50,50,50,1)" stroke-width="2" fill-opacity="1" fill="#ffffff"></path><g id="SvgjsG1022"><text id="SvgjsText1023" font-family="微软雅黑" text-anchor="middle" font-size="13px" width="166px" fill="#323232" font-weight="400" align="middle" lineHeight="125%" anchor="middle" family="微软雅黑" size="13px" weight="400" font-style="" opacity="1" y="21.875" transform="rotate(0)"><tspan id="SvgjsTspan1024" dy="16" x="93"><tspan id="SvgjsTspan1025" style="text-decoration:;">Document</tspan></tspan></text></g></g><g id="SvgjsG1026" transform="translate(78,256)"><path id="SvgjsPath1027" d="M 0 4Q 0 0 4 0L 131 0Q 135 0 135 4L 135 25Q 135 29 131 29L 4 29Q 0 29 0 25Z" stroke="rgba(50,50,50,1)" stroke-width="2" fill-opacity="1" fill="#ffffff"></path><g id="SvgjsG1028"><text id="SvgjsText1029" font-family="微软雅黑" text-anchor="middle" font-size="13px" width="115px" fill="#323232" font-weight="400" align="middle" lineHeight="125%" anchor="middle" family="微软雅黑" size="13px" weight="400" font-style="" opacity="1" y="3.375" transform="rotate(0)"><tspan id="SvgjsTspan1030" dy="16" x="67.5"><tspan id="SvgjsTspan1031" style="text-decoration:;">触发事件Dom元素</tspan></tspan></text></g></g><g id="SvgjsG1032"><path id="SvgjsPath1033" d="M54 58L25 58L25 134L56.39999999999998 134" stroke="#323232" stroke-width="2" fill="none" marker-end="url(#SvgjsMarker1034)"></path></g><g id="SvgjsG1036"><path id="SvgjsPath1037" d="M59 134L30 134L30 199L65.39999999999998 199" stroke="#323232" stroke-width="2" fill="none" marker-end="url(#SvgjsMarker1038)"></path></g><g id="SvgjsG1040"><path id="SvgjsPath1041" d="M68 199L39 199L39 270.5L74.39999999999998 270.5" stroke="#323232" stroke-width="2" fill="none" marker-end="url(#SvgjsMarker1042)"></path></g></svg>