<svg id="SvgjsSvg1006" width="827" height="498.125" xmlns="http://www.w3.org/2000/svg" version="1.1" xmlns:xlink="http://www.w3.org/1999/xlink" xmlns:svgjs="http://svgjs.com/svgjs"><defs id="SvgjsDefs1007"><marker id="SvgjsMarker1046" markerWidth="14" markerHeight="10" refX="10" refY="5" viewBox="0 0 14 10" orient="auto" markerUnits="userSpaceOnUse" stroke-dasharray="0,0"><path id="SvgjsPath1047" d="M0,0 L14,5 L0,10 L0,0" fill="#323232" stroke="#323232" stroke-width="1"></path></marker></defs><g id="SvgjsG1008" transform="translate(26,32.875)"><path id="SvgjsPath1009" d="M 0 0L 101 0L 101 358.25L 0 358.25Z" stroke="rgba(50,50,50,1)" stroke-width="2" fill-opacity="1" fill="#ffffff"></path><g id="SvgjsG1010"><text id="SvgjsText1011" font-family="微软雅黑" text-anchor="middle" font-size="13px" width="81px" fill="#323232" font-weight="400" align="middle" lineHeight="125%" anchor="middle" family="微软雅黑" size="13px" weight="400" font-style="" opacity="1" y="161" transform="rotate(0)"><tspan id="SvgjsTspan1012" dy="16" x="50.5"><tspan id="SvgjsTspan1013" style="text-decoration:;"> </tspan></tspan><tspan id="SvgjsTspan1014" dy="16" x="50.5"><tspan id="SvgjsTspan1015" style="text-decoration:;"> </tspan></tspan></text></g></g><g id="SvgjsG1016" transform="translate(166,25)"><path id="SvgjsPath1017" d="M 0 0L 301 0L 301 374L 0 374Z" stroke="rgba(50,50,50,1)" stroke-width="2" fill-opacity="1" fill="#ffffff"></path><g id="SvgjsG1018"><text id="SvgjsText1019" font-family="微软雅黑" text-anchor="middle" font-size="13px" width="281px" fill="#323232" font-weight="400" align="middle" lineHeight="125%" anchor="middle" family="微软雅黑" size="13px" weight="400" font-style="" opacity="1" y="176.875" transform="rotate(0)"><tspan id="SvgjsTspan1020" dy="16" x="150.5"><tspan id="SvgjsTspan1021" style="text-decoration:;">A100地址指向的内存</tspan></tspan></text></g></g><g id="SvgjsG1022" transform="translate(64,407.125)"><path id="SvgjsPath1023" d="M 0 4Q 0 0 4 0L 29 0Q 33 0 33 4L 33 62Q 33 66 29 66L 4 66Q 0 66 0 62Z" stroke="rgba(50,50,50,1)" stroke-width="2" fill-opacity="1" fill="#ffffff"></path><g id="SvgjsG1024"><text id="SvgjsText1025" font-family="微软雅黑" text-anchor="middle" font-size="13px" width="13px" fill="#323232" font-weight="400" align="middle" lineHeight="125%" anchor="middle" family="微软雅黑" size="13px" weight="400" font-style="" opacity="1" y="6.875" transform="rotate(0)"><tspan id="SvgjsTspan1026" dy="16" x="16.5"><tspan id="SvgjsTspan1027" style="text-decoration:;">栈</tspan></tspan><tspan id="SvgjsTspan1028" dy="16" x="16.5"><tspan id="SvgjsTspan1029" style="text-decoration:;">内</tspan></tspan><tspan id="SvgjsTspan1030" dy="16" x="16.5"><tspan id="SvgjsTspan1031" style="text-decoration:;">存</tspan></tspan></text></g></g><g id="SvgjsG1032" transform="translate(205,412.125)"><path id="SvgjsPath1033" d="M 0 4Q 0 0 4 0L 187 0Q 191 0 191 4L 191 35Q 191 39 187 39L 4 39Q 0 39 0 35Z" stroke="rgba(50,50,50,1)" stroke-width="2" fill-opacity="1" fill="#ffffff"></path><g id="SvgjsG1034"><text id="SvgjsText1035" font-family="微软雅黑" text-anchor="middle" font-size="13px" width="171px" fill="#323232" font-weight="400" align="middle" lineHeight="125%" anchor="middle" family="微软雅黑" size="13px" weight="400" font-style="" opacity="1" y="9.375" transform="rotate(0)"><tspan id="SvgjsTspan1036" dy="16" x="95.5"><tspan id="SvgjsTspan1037" style="text-decoration:;">堆内存</tspan></tspan></text></g></g><g id="SvgjsG1038" transform="translate(323,90)"><path id="SvgjsPath1039" d="M 0 4Q 0 0 4 0L 117 0Q 121 0 121 4L 121 58.125Q 121 62.125 117 62.125L 4 62.125Q 0 62.125 0 58.125Z" stroke="rgba(50,50,50,1)" stroke-width="2" fill-opacity="1" fill="#ffffff"></path><g id="SvgjsG1040"><text id="SvgjsText1041" font-family="微软雅黑" text-anchor="middle" font-size="13px" width="101px" fill="#323232" font-weight="400" align="middle" lineHeight="125%" anchor="middle" family="微软雅黑" size="13px" weight="400" font-style="" opacity="1" y="20.9375" transform="rotate(0)"><tspan id="SvgjsTspan1042" dy="16" x="60.5"><tspan id="SvgjsTspan1043" style="text-decoration:;">{name: "李四"}</tspan></tspan></text></g></g><g id="SvgjsG1044"><path id="SvgjsPath1045" d="M126 248L383.5 248L383.5 155.725" stroke="#323232" stroke-width="2" fill="none" marker-end="url(#SvgjsMarker1046)"></path></g><g id="SvgjsG1048" transform="translate(25,213.125)"><path id="SvgjsPath1049" d="M 0 0L 100 0L 100 70L 0 70Z" stroke="rgba(50,50,50,1)" stroke-width="2" fill-opacity="1" fill="#ffffff"></path><g id="SvgjsG1050"><text id="SvgjsText1051" font-family="微软雅黑" text-anchor="middle" font-size="13px" width="80px" fill="#323232" font-weight="400" align="middle" lineHeight="125%" anchor="middle" family="微软雅黑" size="13px" weight="400" font-style="" opacity="1" y="24.875" transform="rotate(0)"><tspan id="SvgjsTspan1052" dy="16" x="50"><tspan id="SvgjsTspan1053" style="text-decoration:;">object: A100</tspan></tspan></text></g></g><g id="SvgjsG1054" transform="translate(25,90)"><path id="SvgjsPath1055" d="M 0 4Q 0 0 4 0L 96 0Q 100 0 100 4L 100 66Q 100 70 96 70L 4 70Q 0 70 0 66Z" stroke="rgba(50,50,50,1)" stroke-width="2" fill-opacity="1" fill="#ffffff"></path><g id="SvgjsG1056"><text id="SvgjsText1057" font-family="微软雅黑" text-anchor="middle" font-size="13px" width="80px" fill="#323232" font-weight="400" align="middle" lineHeight="125%" anchor="middle" family="微软雅黑" size="13px" weight="400" font-style="" opacity="1" y="24.875" transform="rotate(0)"><tspan id="SvgjsTspan1058" dy="16" x="50"><tspan id="SvgjsTspan1059" style="text-decoration:;">name:"张三"</tspan></tspan></text></g></g><g id="SvgjsG1060" transform="translate(539,160)"><path id="SvgjsPath1061" d="M 0 4Q 0 0 4 0L 259 0Q 263 0 263 4L 263 87Q 263 91 259 91L 4 91Q 0 91 0 87Z" stroke="rgba(50,50,50,1)" stroke-width="2" fill-opacity="1" fill="#ffffff"></path><g id="SvgjsG1062"><text id="SvgjsText1063" font-family="微软雅黑" text-anchor="middle" font-size="13px" width="243px" fill="#323232" font-weight="400" align="middle" lineHeight="125%" anchor="middle" family="微软雅黑" size="13px" weight="400" font-style="" opacity="1" y="35.375" transform="rotate(0)"><tspan id="SvgjsTspan1064" dy="16" x="131.5"><tspan id="SvgjsTspan1065" style="text-decoration:;">函数作用域中保存在内存中的变量</tspan></tspan></text></g></g></svg>