<svg id="SvgjsSvg1066" width="826" height="498.125" xmlns="http://www.w3.org/2000/svg" version="1.1" xmlns:xlink="http://www.w3.org/1999/xlink" xmlns:svgjs="http://svgjs.com/svgjs"><defs id="SvgjsDefs1067"></defs><g id="SvgjsG1068" transform="translate(25,32.875)"><path id="SvgjsPath1069" d="M 0 0L 101 0L 101 358.25L 0 358.25Z" stroke="rgba(50,50,50,1)" stroke-width="2" fill-opacity="1" fill="#ffffff"></path><g id="SvgjsG1070"><text id="SvgjsText1071" font-family="微软雅黑" text-anchor="middle" font-size="13px" width="81px" fill="#323232" font-weight="400" align="middle" lineHeight="125%" anchor="middle" family="微软雅黑" size="13px" weight="400" font-style="" opacity="1" y="161" transform="rotate(0)"><tspan id="SvgjsTspan1072" dy="16" x="50.5"><tspan id="SvgjsTspan1073" style="text-decoration:;"> </tspan></tspan><tspan id="SvgjsTspan1074" dy="16" x="50.5"><tspan id="SvgjsTspan1075" style="text-decoration:;"> </tspan></tspan></text></g></g><g id="SvgjsG1076" transform="translate(165,25)"><path id="SvgjsPath1077" d="M 0 0L 301 0L 301 374L 0 374Z" stroke="rgba(50,50,50,1)" stroke-width="2" fill-opacity="1" fill="#ffffff"></path><g id="SvgjsG1078"><text id="SvgjsText1079" font-family="微软雅黑" text-anchor="middle" font-size="13px" width="281px" fill="#323232" font-weight="400" align="middle" lineHeight="125%" anchor="middle" family="微软雅黑" size="13px" weight="400" font-style="" opacity="1" y="176.875" transform="rotate(0)"><tspan id="SvgjsTspan1080" dy="16" x="150.5"><tspan id="SvgjsTspan1081" style="text-decoration:;">没有变量指向它</tspan></tspan></text></g></g><g id="SvgjsG1082" transform="translate(63,407.125)"><path id="SvgjsPath1083" d="M 0 4Q 0 0 4 0L 29 0Q 33 0 33 4L 33 62Q 33 66 29 66L 4 66Q 0 66 0 62Z" stroke="rgba(50,50,50,1)" stroke-width="2" fill-opacity="1" fill="#ffffff"></path><g id="SvgjsG1084"><text id="SvgjsText1085" font-family="微软雅黑" text-anchor="middle" font-size="13px" width="13px" fill="#323232" font-weight="400" align="middle" lineHeight="125%" anchor="middle" family="微软雅黑" size="13px" weight="400" font-style="" opacity="1" y="6.875" transform="rotate(0)"><tspan id="SvgjsTspan1086" dy="16" x="16.5"><tspan id="SvgjsTspan1087" style="text-decoration:;">栈</tspan></tspan><tspan id="SvgjsTspan1088" dy="16" x="16.5"><tspan id="SvgjsTspan1089" style="text-decoration:;">内</tspan></tspan><tspan id="SvgjsTspan1090" dy="16" x="16.5"><tspan id="SvgjsTspan1091" style="text-decoration:;">存</tspan></tspan></text></g></g><g id="SvgjsG1092" transform="translate(204,412.125)"><path id="SvgjsPath1093" d="M 0 4Q 0 0 4 0L 187 0Q 191 0 191 4L 191 35Q 191 39 187 39L 4 39Q 0 39 0 35Z" stroke="rgba(50,50,50,1)" stroke-width="2" fill-opacity="1" fill="#ffffff"></path><g id="SvgjsG1094"><text id="SvgjsText1095" font-family="微软雅黑" text-anchor="middle" font-size="13px" width="171px" fill="#323232" font-weight="400" align="middle" lineHeight="125%" anchor="middle" family="微软雅黑" size="13px" weight="400" font-style="" opacity="1" y="9.375" transform="rotate(0)"><tspan id="SvgjsTspan1096" dy="16" x="95.5"><tspan id="SvgjsTspan1097" style="text-decoration:;">堆内存</tspan></tspan></text></g></g><g id="SvgjsG1098" transform="translate(266,120)"><path id="SvgjsPath1099" d="M 0 4Q 0 0 4 0L 117 0Q 121 0 121 4L 121 58.125Q 121 62.125 117 62.125L 4 62.125Q 0 62.125 0 58.125Z" stroke="rgba(50,50,50,1)" stroke-width="2" fill-opacity="1" fill="#ffffff"></path><g id="SvgjsG1100"><text id="SvgjsText1101" font-family="微软雅黑" text-anchor="middle" font-size="13px" width="101px" fill="#323232" font-weight="400" align="middle" lineHeight="125%" anchor="middle" family="微软雅黑" size="13px" weight="400" font-style="" opacity="1" y="20.9375" transform="rotate(0)"><tspan id="SvgjsTspan1102" dy="16" x="60.5"><tspan id="SvgjsTspan1103" style="text-decoration:;">{name: "李四"}</tspan></tspan></text></g></g><g id="SvgjsG1104" transform="translate(538,160)"><path id="SvgjsPath1105" d="M 0 4Q 0 0 4 0L 259 0Q 263 0 263 4L 263 87Q 263 91 259 91L 4 91Q 0 91 0 87Z" stroke="rgba(50,50,50,1)" stroke-width="2" fill-opacity="1" fill="#ffffff"></path><g id="SvgjsG1106"><text id="SvgjsText1107" font-family="微软雅黑" text-anchor="middle" font-size="13px" width="243px" fill="#323232" font-weight="400" align="middle" lineHeight="125%" anchor="middle" family="微软雅黑" size="13px" weight="400" font-style="" opacity="1" y="35.375" transform="rotate(0)"><tspan id="SvgjsTspan1108" dy="16" x="131.5"><tspan id="SvgjsTspan1109" style="text-decoration:;">函数作用域中保存在内存中的变量</tspan></tspan></text></g></g></svg>