<svg id="SvgjsSvg1110" width="481" height="498.125" xmlns="http://www.w3.org/2000/svg" version="1.1" xmlns:xlink="http://www.w3.org/1999/xlink" xmlns:svgjs="http://svgjs.com/svgjs"><defs id="SvgjsDefs1111"><marker id="SvgjsMarker1144" markerWidth="14" markerHeight="10" refX="10" refY="5" viewBox="0 0 14 10" orient="auto" markerUnits="userSpaceOnUse" stroke-dasharray="0,0"><path id="SvgjsPath1145" d="M0,0 L14,5 L0,10 L0,0" fill="#323232" stroke="#323232" stroke-width="1"></path></marker><marker id="SvgjsMarker1160" markerWidth="14" markerHeight="10" refX="10" refY="5" viewBox="0 0 14 10" orient="auto" markerUnits="userSpaceOnUse" stroke-dasharray="0,0"><path id="SvgjsPath1161" d="M0,0 L14,5 L0,10 L0,0" fill="#323232" stroke="#323232" stroke-width="1"></path></marker></defs><g id="SvgjsG1112" transform="translate(26,32.875)"><path id="SvgjsPath1113" d="M 0 0L 101 0L 101 358.25L 0 358.25Z" stroke="rgba(50,50,50,1)" stroke-width="2" fill-opacity="1" fill="#ffffff"></path><g id="SvgjsG1114"><text id="SvgjsText1115" font-family="微软雅黑" text-anchor="middle" font-size="13px" width="81px" fill="#323232" font-weight="400" align="middle" lineHeight="125%" anchor="middle" family="微软雅黑" size="13px" weight="400" font-style="" opacity="1" y="169" transform="rotate(0)"></text></g></g><g id="SvgjsG1116" transform="translate(155,25)"><path id="SvgjsPath1117" d="M 0 0L 301 0L 301 374L 0 374Z" stroke="rgba(50,50,50,1)" stroke-width="2" fill-opacity="1" fill="#ffffff"></path><g id="SvgjsG1118"><text id="SvgjsText1119" font-family="微软雅黑" text-anchor="middle" font-size="13px" width="281px" fill="#323232" font-weight="400" align="middle" lineHeight="125%" anchor="middle" family="微软雅黑" size="13px" weight="400" font-style="" opacity="1" y="176.875" transform="rotate(0)"></text></g></g><g id="SvgjsG1120" transform="translate(65,407.125)"><path id="SvgjsPath1121" d="M 0 4Q 0 0 4 0L 29 0Q 33 0 33 4L 33 62Q 33 66 29 66L 4 66Q 0 66 0 62Z" stroke="rgba(50,50,50,1)" stroke-width="2" fill-opacity="1" fill="#ffffff"></path><g id="SvgjsG1122"><text id="SvgjsText1123" font-family="微软雅黑" text-anchor="middle" font-size="13px" width="13px" fill="#323232" font-weight="400" align="middle" lineHeight="125%" anchor="middle" family="微软雅黑" size="13px" weight="400" font-style="" opacity="1" y="6.875" transform="rotate(0)"><tspan id="SvgjsTspan1124" dy="16" x="16.5"><tspan id="SvgjsTspan1125" style="text-decoration:;">栈</tspan></tspan><tspan id="SvgjsTspan1126" dy="16" x="16.5"><tspan id="SvgjsTspan1127" style="text-decoration:;">内</tspan></tspan><tspan id="SvgjsTspan1128" dy="16" x="16.5"><tspan id="SvgjsTspan1129" style="text-decoration:;">存</tspan></tspan></text></g></g><g id="SvgjsG1130" transform="translate(206,412.125)"><path id="SvgjsPath1131" d="M 0 4Q 0 0 4 0L 187 0Q 191 0 191 4L 191 35Q 191 39 187 39L 4 39Q 0 39 0 35Z" stroke="rgba(50,50,50,1)" stroke-width="2" fill-opacity="1" fill="#ffffff"></path><g id="SvgjsG1132"><text id="SvgjsText1133" font-family="微软雅黑" text-anchor="middle" font-size="13px" width="171px" fill="#323232" font-weight="400" align="middle" lineHeight="125%" anchor="middle" family="微软雅黑" size="13px" weight="400" font-style="" opacity="1" y="9.375" transform="rotate(0)"><tspan id="SvgjsTspan1134" dy="16" x="95.5"><tspan id="SvgjsTspan1135" style="text-decoration:;">堆内存</tspan></tspan></text></g></g><g id="SvgjsG1136" transform="translate(231,63.125)"><path id="SvgjsPath1137" d="M 0 4Q 0 0 4 0L 157 0Q 161 0 161 4L 161 66Q 161 70 157 70L 4 70Q 0 70 0 66Z" stroke="rgba(50,50,50,1)" stroke-width="2" fill-opacity="1" fill="#ffffff"></path><g id="SvgjsG1138"><text id="SvgjsText1139" font-family="微软雅黑" text-anchor="middle" font-size="13px" width="141px" fill="#323232" font-weight="400" align="middle" lineHeight="125%" anchor="middle" family="微软雅黑" size="13px" weight="400" font-style="" opacity="1" y="24.875" transform="rotate(0)"><tspan id="SvgjsTspan1140" dy="16" x="80.5"><tspan id="SvgjsTspan1141" style="text-decoration:;">函数体本身</tspan></tspan></text></g></g><g id="SvgjsG1142"><path id="SvgjsPath1143" d="M128 212L311.5 212L311.5 136.725" stroke="#323232" stroke-width="2" fill="none" marker-end="url(#SvgjsMarker1144)"></path></g><g id="SvgjsG1146" transform="translate(25,191.125)"><path id="SvgjsPath1147" d="M 0 0L 100 0L 100 70L 0 70Z" stroke="rgba(50,50,50,1)" stroke-width="2" fill-opacity="1" fill="#ffffff"></path><g id="SvgjsG1148"><text id="SvgjsText1149" font-family="微软雅黑" text-anchor="middle" font-size="13px" width="80px" fill="#323232" font-weight="400" align="middle" lineHeight="125%" anchor="middle" family="微软雅黑" size="13px" weight="400" font-style="" opacity="1" y="24.875" transform="rotate(0)"><tspan id="SvgjsTspan1150" dy="16" x="50"><tspan id="SvgjsTspan1151" style="text-decoration:;">fn:A001</tspan></tspan></text></g></g><g id="SvgjsG1152" transform="translate(25,63.125)"><path id="SvgjsPath1153" d="M 0 4Q 0 0 4 0L 96 0Q 100 0 100 4L 100 66Q 100 70 96 70L 4 70Q 0 70 0 66Z" stroke="rgba(50,50,50,1)" stroke-width="2" fill-opacity="1" fill="#ffffff"></path><g id="SvgjsG1154"><text id="SvgjsText1155" font-family="微软雅黑" text-anchor="middle" font-size="13px" width="80px" fill="#323232" font-weight="400" align="middle" lineHeight="125%" anchor="middle" family="微软雅黑" size="13px" weight="400" font-style="" opacity="1" y="24.875" transform="rotate(0)"><tspan id="SvgjsTspan1156" dy="16" x="50"><tspan id="SvgjsTspan1157" style="text-decoration:;">外部变量</tspan></tspan></text></g></g><g id="SvgjsG1158"><path id="SvgjsPath1159" d="M126 98.125L178 98.125L178 98.125L227.39999999999998 98.125" stroke="#323232" stroke-width="2" fill="none" marker-end="url(#SvgjsMarker1160)"></path></g></svg>