<svg id="SvgjsSvg1198" width="663" height="275" xmlns="http://www.w3.org/2000/svg" version="1.1" xmlns:xlink="http://www.w3.org/1999/xlink" xmlns:svgjs="http://svgjs.com/svgjs"><defs id="SvgjsDefs1199"><marker id="SvgjsMarker1208" markerWidth="16" markerHeight="12" refX="16" refY="6" viewBox="0 0 16 12" orient="auto" markerUnits="userSpaceOnUse" stroke-dasharray="0,0"><path id="SvgjsPath1209" d="M0,2 L14,6 L0,11 L0,2" fill="#4caf50" stroke="#4caf50" stroke-width="2"></path></marker><marker id="SvgjsMarker1224" markerWidth="16" markerHeight="12" refX="16" refY="6" viewBox="0 0 16 12" orient="auto" markerUnits="userSpaceOnUse" stroke-dasharray="0,0"><path id="SvgjsPath1225" d="M0,2 L14,6 L0,11 L0,2" fill="#d32f2f" stroke="#d32f2f" stroke-width="2"></path></marker><marker id="SvgjsMarker1240" markerWidth="16" markerHeight="12" refX="16" refY="6" viewBox="0 0 16 12" orient="auto" markerUnits="userSpaceOnUse" stroke-dasharray="0,0"><path id="SvgjsPath1241" d="M0,2 L14,6 L0,11 L0,2" fill="#4caf50" stroke="#4caf50" stroke-width="2"></path></marker><marker id="SvgjsMarker1244" markerWidth="16" markerHeight="12" refX="16" refY="6" viewBox="0 0 16 12" orient="auto" markerUnits="userSpaceOnUse" stroke-dasharray="0,0"><path id="SvgjsPath1245" d="M0,2 L14,6 L0,11 L0,2" fill="#d32f2f" stroke="#d32f2f" stroke-width="2"></path></marker></defs><g id="SvgjsG1200" transform="translate(25,95)"><path id="SvgjsPath1201" d="M 0 0L 100 0L 100 70L 0 70Z" stroke="rgba(156,39,176,1)" stroke-width="2" fill-opacity="1" fill="#ffffff"></path><g id="SvgjsG1202"><text id="SvgjsText1203" font-family="微软雅黑" text-anchor="middle" font-size="13px" width="80px" fill="#323232" font-weight="400" align="middle" lineHeight="125%" anchor="middle" family="微软雅黑" size="13px" weight="400" font-style="" opacity="1" y="25.375" transform="rotate(0)"><tspan id="SvgjsTspan1204" dy="16" x="50"><tspan id="SvgjsTspan1205" style="text-decoration:;">Pending</tspan></tspan></text></g></g><g id="SvgjsG1206"><path id="SvgjsPath1207" d="M125 130L200.5 130L200.5 60L276 60" stroke="#4caf50" stroke-width="2" fill="none" marker-end="url(#SvgjsMarker1208)"></path></g><g id="SvgjsG1210" transform="translate(276,25)"><path id="SvgjsPath1211" d="M 0 0L 100 0L 100 70L 0 70Z" stroke="rgba(76,175,80,1)" stroke-width="2" fill-opacity="1" fill="#ffffff"></path><g id="SvgjsG1212"><text id="SvgjsText1213" font-family="微软雅黑" text-anchor="middle" font-size="13px" width="80px" fill="#323232" font-weight="400" align="middle" lineHeight="125%" anchor="middle" family="微软雅黑" size="13px" weight="400" font-style="" opacity="1" y="25.375" transform="rotate(0)"><tspan id="SvgjsTspan1214" dy="16" x="50"><tspan id="SvgjsTspan1215" style="text-decoration:;">Fulfilled</tspan></tspan></text></g></g><g id="SvgjsG1216" transform="translate(276,180)"><path id="SvgjsPath1217" d="M 0 0L 100 0L 100 70L 0 70Z" stroke="rgba(211,47,47,1)" stroke-width="2" fill-opacity="1" fill="#ffffff"></path><g id="SvgjsG1218"><text id="SvgjsText1219" font-family="微软雅黑" text-anchor="middle" font-size="13px" width="80px" fill="#323232" font-weight="400" align="middle" lineHeight="125%" anchor="middle" family="微软雅黑" size="13px" weight="400" font-style="" opacity="1" y="25.375" transform="rotate(0)"><tspan id="SvgjsTspan1220" dy="16" x="50"><tspan id="SvgjsTspan1221" style="text-decoration:;">Rejected</tspan></tspan></text></g></g><g id="SvgjsG1222"><path id="SvgjsPath1223" d="M124 155L200 155L200 215L276 215" stroke="#d32f2f" stroke-width="2" fill="none" marker-end="url(#SvgjsMarker1224)"></path></g><g id="SvgjsG1226" transform="translate(529,171)"><path id="SvgjsPath1227" d="M 0 0L 100 0L 100 70L 0 70Z" stroke="rgba(211,47,47,1)" stroke-width="2" fill-opacity="1" fill="#ffffff"></path><g id="SvgjsG1228"><text id="SvgjsText1229" font-family="微软雅黑" text-anchor="middle" font-size="13px" width="80px" fill="#323232" font-weight="400" align="middle" lineHeight="125%" anchor="middle" family="微软雅黑" size="13px" weight="400" font-style="" opacity="1" y="25.375" transform="rotate(0)"><tspan id="SvgjsTspan1230" dy="16" x="50"><tspan id="SvgjsTspan1231" style="text-decoration:;">onReject</tspan></tspan></text></g></g><g id="SvgjsG1232" transform="translate(538,25)"><path id="SvgjsPath1233" d="M 0 0L 100 0L 100 70L 0 70Z" stroke="rgba(76,175,80,1)" stroke-width="2" fill-opacity="1" fill="#ffffff"></path><g id="SvgjsG1234"><text id="SvgjsText1235" font-family="微软雅黑" text-anchor="middle" font-size="13px" width="80px" fill="#323232" font-weight="400" align="middle" lineHeight="125%" anchor="middle" family="微软雅黑" size="13px" weight="400" font-style="" opacity="1" y="25.375" transform="rotate(0)"><tspan id="SvgjsTspan1236" dy="16" x="50"><tspan id="SvgjsTspan1237" style="text-decoration:;">onFulfilled</tspan></tspan></text></g></g><g id="SvgjsG1238"><path id="SvgjsPath1239" d="M376 62L452.5 62L452.5 62L529 62" stroke="#4caf50" stroke-width="2" fill="none" marker-end="url(#SvgjsMarker1240)"></path></g><g id="SvgjsG1242"><path id="SvgjsPath1243" d="M376 215L452.5 215L452.5 215L529 215" stroke="#d32f2f" stroke-width="2" fill="none" marker-end="url(#SvgjsMarker1244)"></path></g></svg>