<svg id="SvgjsSvg1006" width="779" height="432.5" xmlns="http://www.w3.org/2000/svg" version="1.1" xmlns:xlink="http://www.w3.org/1999/xlink" xmlns:svgjs="http://svgjs.com/svgjs"><defs id="SvgjsDefs1007"><marker id="SvgjsMarker1040" markerWidth="14" markerHeight="10" refX="10" refY="5" viewBox="0 0 14 10" orient="auto" markerUnits="userSpaceOnUse" stroke-dasharray="0,0"><path id="SvgjsPath1041" d="M0,0 L14,5 L0,10 L0,0" fill="#323232" stroke="#323232" stroke-width="1"></path></marker><marker id="SvgjsMarker1044" markerWidth="14" markerHeight="10" refX="10" refY="5" viewBox="0 0 14 10" orient="auto" markerUnits="userSpaceOnUse" stroke-dasharray="0,0"><path id="SvgjsPath1045" d="M0,0 L14,5 L0,10 L0,0" fill="#323232" stroke="#323232" stroke-width="1"></path></marker><marker id="SvgjsMarker1048" markerWidth="14" markerHeight="10" refX="10" refY="5" viewBox="0 0 14 10" orient="auto" markerUnits="userSpaceOnUse" stroke-dasharray="0,0"><path id="SvgjsPath1049" d="M0,0 L14,5 L0,10 L0,0" fill="#f44336" stroke="#f44336" stroke-width="1"></path></marker></defs><g id="SvgjsG1008" transform="translate(25,59.5)"><path id="SvgjsPath1009" d="M 0 0L 248 0L 248 76L 0 76Z" stroke="rgba(50,50,50,1)" stroke-width="2" fill-opacity="1" fill="#ffffff"></path><g id="SvgjsG1010"><text id="SvgjsText1011" font-family="微软雅黑" text-anchor="middle" font-size="13px" width="228px" fill="#323232" font-weight="400" align="middle" lineHeight="125%" anchor="middle" family="微软雅黑" size="13px" weight="400" font-style="" opacity="1" y="26.875" transform="rotate(0)"><tspan id="SvgjsTspan1012" dy="16" x="124"><tspan id="SvgjsTspan1013" style="text-decoration:;">http://localhost:3000</tspan></tspan></text></g></g><g id="SvgjsG1014" transform="translate(92.5,31.5)"><path id="SvgjsPath1015" d="M 0 0L 113 0L 113 27L 0 27Z" stroke="none" fill="none"></path><g id="SvgjsG1016"><text id="SvgjsText1017" font-family="微软雅黑" text-anchor="middle" font-size="13px" width="113px" fill="#323232" font-weight="400" align="middle" lineHeight="125%" anchor="middle" family="微软雅黑" size="13px" weight="400" font-style="" opacity="1" y="2.375" transform="rotate(0)"><tspan id="SvgjsTspan1018" dy="16" x="56.5"><tspan id="SvgjsTspan1019" style="text-decoration:;">client 客户端</tspan></tspan></text></g></g><g id="SvgjsG1020" transform="translate(518,59.5)"><path id="SvgjsPath1021" d="M 0 0L 236 0L 236 76L 0 76Z" stroke="rgba(50,50,50,1)" stroke-width="2" fill-opacity="1" fill="#ffffff"></path><g id="SvgjsG1022"><text id="SvgjsText1023" font-family="微软雅黑" text-anchor="middle" font-size="13px" width="216px" fill="#323232" font-weight="400" align="middle" lineHeight="125%" anchor="middle" family="微软雅黑" size="13px" weight="400" font-style="" opacity="1" y="26.875" transform="rotate(0)"><tspan id="SvgjsTspan1024" dy="16" x="118"><tspan id="SvgjsTspan1025" style="text-decoration:;">http://localhost:5001</tspan></tspan></text></g></g><g id="SvgjsG1026" transform="translate(575,25)"><path id="SvgjsPath1027" d="M 0 0L 94 0L 94 27L 0 27Z" stroke="none" fill="none"></path><g id="SvgjsG1028"><text id="SvgjsText1029" font-family="微软雅黑" text-anchor="middle" font-size="13px" width="94px" fill="#323232" font-weight="400" align="middle" lineHeight="125%" anchor="middle" family="微软雅黑" size="13px" weight="400" font-style="" opacity="1" y="2.375" transform="rotate(0)"><tspan id="SvgjsTspan1030" dy="16" x="47"><tspan id="SvgjsTspan1031" style="text-decoration:;">服务端 server</tspan></tspan></text></g></g><g id="SvgjsG1032" transform="translate(315,261.5)"><path id="SvgjsPath1033" d="M 0 0L 100 0L 100 70L 0 70Z" stroke="rgba(50,50,50,1)" stroke-width="2" fill-opacity="1" fill="#ffffff"></path><g id="SvgjsG1034"><text id="SvgjsText1035" font-family="微软雅黑" text-anchor="middle" font-size="13px" width="80px" fill="#323232" font-weight="400" align="middle" lineHeight="125%" anchor="middle" family="微软雅黑" size="13px" weight="400" font-style="" opacity="1" y="23.875" transform="rotate(0)"><tspan id="SvgjsTspan1036" dy="16" x="50"><tspan id="SvgjsTspan1037" style="text-decoration:;">proxy代理</tspan></tspan></text></g></g><g id="SvgjsG1038"><path id="SvgjsPath1039" d="M149 136.5L149 198.01576946759167L319.1130913087035 198.01576946759167L319.1130913087035 257.9" stroke="#323232" stroke-width="2" fill="none" marker-end="url(#SvgjsMarker1040)"></path></g><g id="SvgjsG1042"><path id="SvgjsPath1043" d="M407.46429042955583 260.5L407.46429042955583 198.21892336110994L574 198.21892336110994L574 139.1" stroke="#323232" stroke-width="2" fill="none" marker-end="url(#SvgjsMarker1044)"></path></g><g id="SvgjsG1046"><path id="SvgjsPath1047" d="M274 97.5L394 97.5L394 97.5L514.4 97.5" stroke="#f44336" stroke-width="2" fill="none" marker-end="url(#SvgjsMarker1048)"></path></g><g id="SvgjsG1050" transform="translate(323.5,46.5)"><path id="SvgjsPath1051" d="M 0 0L 144 0L 144 38L 0 38Z" stroke="none" fill="none"></path><g id="SvgjsG1052"><text id="SvgjsText1053" font-family="微软雅黑" text-anchor="middle" font-size="13px" width="144px" fill="#f44336" font-weight="700" align="middle" lineHeight="125%" anchor="middle" family="微软雅黑" size="13px" weight="700" font-style="" opacity="1" y="7.875" transform="rotate(0)"><tspan id="SvgjsTspan1054" dy="16" x="72"><tspan id="SvgjsTspan1055" style="text-decoration:;">跨域</tspan></tspan></text></g></g><g id="SvgjsG1056" transform="translate(234,348.5)"><path id="SvgjsPath1057" d="M 0 0L 274 0L 274 59L 0 59Z" stroke="none" fill="none"></path><g id="SvgjsG1058"><text id="SvgjsText1059" font-family="微软雅黑" text-anchor="middle" font-size="13px" width="274px" fill="#f44336" font-weight="700" align="middle" lineHeight="125%" anchor="middle" family="微软雅黑" size="13px" weight="700" font-style="" opacity="1" y="18.375" transform="rotate(0)"><tspan id="SvgjsTspan1060" dy="16" x="137"><tspan id="SvgjsTspan1061" style="text-decoration:;">接受来自3000端口转发至5001端口</tspan></tspan></text></g></g></svg>